#Comment line ignore any data following # character 
#Hierarchical Translation and Rotation (.htr) file 
[Header]	
#Header keywords are followed by a single value 
FileType HTR		#Single word string
DataType HTRS		#Translation followed by rotation and scale data
FileVersion 1		#integer
NumSegments 84		#integer
NumFrames 2		#integer
DataFrameRate 30		#integer, data frame rate in this file
EulerRotationOrder ZYX
CalibrationUnits mm
RotationUnits Degrees
GlobalAxisofGravity Y
BoneLengthAxis Y
ScaleFactor 1.00
[SegmentNames&Hierarchy]
#CHILD	PARENT
MASTER GLOBAL
root MASTER
chest root
L_mid_tent01 root
R_mid_tent01 root
spine01 root
Bip01_Neck chest
L_humerus chest
R_humerus chest
weapon_bone chest
Bip01_Head Bip01_Neck
eye_left_bone Bip01_Head
eye_right_bone Bip01_Head
L_forearm L_humerus
L_front_hand L_forearm
L_weapon_bone L_forearm
L_front_hand01_01 L_front_hand
L_front_hand02_01 L_front_hand
L_front_hand03_01 L_front_hand
L_front_hand01_02 L_front_hand01_01
L_front_hand02_02 L_front_hand02_01
L_front_hand03_02 L_front_hand03_01
R_forearm R_humerus
R_front_hand R_forearm
R_weapon_bone R_forearm
R_front_hand01_01 R_front_hand
R_front_hand02_01 R_front_hand
R_front_hand03_01 R_front_hand
R_front_hand01_02 R_front_hand01_01
R_front_hand02_02 R_front_hand02_01
R_front_hand03_02 R_front_hand03_01
null_rope01_connect L_mid_tent01
Rope1_Seg01 null_rope01_connect
Rope1_Seg02 Rope1_Seg01
Rope1_Seg03 Rope1_Seg02
Rope1_Seg04 Rope1_Seg03
Rope1_Seg05 Rope1_Seg04
Rope1_Seg06 Rope1_Seg05
Rope1_Seg07 Rope1_Seg06
Rope1_Seg09 Rope1_Seg07
L_mid_hand01 Rope1_Seg09
L_mid_hand02 Rope1_Seg09
L_mid_hand03 Rope1_Seg09
null_rope02_connect R_mid_tent01
Rope2_Seg01 null_rope02_connect
Rope2_Seg02 Rope2_Seg01
Rope2_Seg03 Rope2_Seg02
Rope2_Seg04 Rope2_Seg03
Rope2_Seg05 Rope2_Seg04
Rope2_Seg06 Rope2_Seg05
Rope2_Seg07 Rope2_Seg06
Rope2_Seg09 Rope2_Seg07
R_mid_hand01 Rope2_Seg09
R_mid_hand02 Rope2_Seg09
R_mid_hand03 Rope2_Seg09
spine02 spine01
spine03 spine02
pelvis spine03
null_rope03_connect pelvis
null_rope04_connect pelvis
Rope3_Seg01 null_rope03_connect
Rope3_Seg02 Rope3_Seg01
Rope3_Seg03 Rope3_Seg02
Rope3_Seg04 Rope3_Seg03
Rope3_Seg05 Rope3_Seg04
Rope3_Seg06 Rope3_Seg05
Rope3_Seg07 Rope3_Seg06
Rope3_Seg08 Rope3_Seg07
Rope3_Seg09 Rope3_Seg08
R_rear_hand01 Rope3_Seg09
R_rear_hand02 Rope3_Seg09
R_rear_hand03 Rope3_Seg09
Rope4_Seg01 null_rope04_connect
Rope4_Seg02 Rope4_Seg01
Rope4_Seg03 Rope4_Seg02
Rope4_Seg04 Rope4_Seg03
Rope4_Seg05 Rope4_Seg04
Rope4_Seg06 Rope4_Seg05
Rope4_Seg07 Rope4_Seg06
Rope4_Seg08 Rope4_Seg07
Rope4_Seg09 Rope4_Seg08
L_rear_hand01 Rope4_Seg09
L_rear_hand02 Rope4_Seg09
L_rear_hand03 Rope4_Seg09
[BasePosition]
#SegmentName Tx, Ty, Tz, Rx, Ry, Rz, BoneLength
MASTER 0.000000 0.000000 0.000000 -90.000000 0.000000 0.000000 10.000000 
root 0.000000 0.000000 0.000000 0.000000 0.000000 0.000000 10.000000 
chest 0.000000 0.000000 0.000000 0.000000 0.000000 0.000000 10.000000 
L_mid_tent01 0.000000 0.000000 0.000000 0.000000 0.000000 0.000000 10.000000 
R_mid_tent01 0.000000 0.000000 0.000000 0.000000 0.000000 0.000000 10.000000 
spine01 0.000000 0.000000 0.000000 0.000000 0.000000 0.000000 10.000000 
Bip01_Neck 0.000000 0.000000 0.000000 0.000000 0.000000 0.000000 10.000000 
L_humerus 0.000000 0.000000 0.000000 0.000000 0.000000 0.000000 10.000000 
R_humerus 0.000000 0.000000 0.000000 0.000000 0.000000 0.000000 10.000000 
weapon_bone 0.000000 0.000000 0.000000 0.000000 0.000000 0.000000 10.000000 
Bip01_Head 0.000000 0.000000 0.000000 0.000000 0.000000 0.000000 10.000000 
eye_left_bone 0.000000 0.000000 0.000000 0.000000 0.000000 0.000000 10.000000 
eye_right_bone 0.000000 0.000000 0.000000 0.000000 0.000000 0.000000 10.000000 
L_forearm 0.000000 0.000000 0.000000 0.000000 0.000000 0.000000 10.000000 
L_front_hand 0.000000 0.000000 0.000000 0.000000 0.000000 0.000000 10.000000 
L_weapon_bone 0.000000 0.000000 0.000000 0.000000 0.000000 0.000000 10.000000 
L_front_hand01_01 0.000000 0.000000 0.000000 0.000000 0.000000 0.000000 10.000000 
L_front_hand02_01 0.000000 0.000000 0.000000 0.000000 0.000000 0.000000 10.000000 
L_front_hand03_01 0.000000 0.000000 0.000000 0.000000 0.000000 0.000000 10.000000 
L_front_hand01_02 0.000000 0.000000 0.000000 0.000000 0.000000 0.000000 10.000000 
L_front_hand02_02 0.000000 0.000000 0.000000 0.000000 0.000000 0.000000 10.000000 
L_front_hand03_02 0.000000 0.000000 0.000000 0.000000 0.000000 0.000000 10.000000 
R_forearm 0.000000 0.000000 0.000000 0.000000 0.000000 0.000000 10.000000 
R_front_hand 0.000000 0.000000 0.000000 0.000000 0.000000 0.000000 10.000000 
R_weapon_bone 0.000000 0.000000 0.000000 0.000000 0.000000 0.000000 10.000000 
R_front_hand01_01 0.000000 0.000000 0.000000 0.000000 0.000000 0.000000 10.000000 
R_front_hand02_01 0.000000 0.000000 0.000000 0.000000 0.000000 0.000000 10.000000 
R_front_hand03_01 0.000000 0.000000 0.000000 0.000000 0.000000 0.000000 10.000000 
R_front_hand01_02 0.000000 0.000000 0.000000 0.000000 0.000000 0.000000 10.000000 
R_front_hand02_02 0.000000 0.000000 0.000000 0.000000 0.000000 0.000000 10.000000 
R_front_hand03_02 0.000000 0.000000 0.000000 0.000000 0.000000 0.000000 10.000000 
null_rope01_connect 0.000000 0.000000 0.000000 0.000000 0.000000 0.000000 10.000000 
Rope1_Seg01 0.000000 0.000000 0.000000 0.000000 0.000000 0.000000 10.000000 
Rope1_Seg02 0.000000 0.000000 0.000000 0.000000 0.000000 0.000000 10.000000 
Rope1_Seg03 0.000000 0.000000 0.000000 0.000000 0.000000 0.000000 10.000000 
Rope1_Seg04 0.000000 0.000000 0.000000 0.000000 0.000000 0.000000 10.000000 
Rope1_Seg05 0.000000 0.000000 0.000000 0.000000 0.000000 0.000000 10.000000 
Rope1_Seg06 0.000000 0.000000 0.000000 0.000000 0.000000 0.000000 10.000000 
Rope1_Seg07 0.000000 0.000000 0.000000 0.000000 0.000000 0.000000 10.000000 
Rope1_Seg09 0.000000 0.000000 0.000000 0.000000 0.000000 0.000000 10.000000 
L_mid_hand01 0.000000 0.000000 0.000000 0.000000 0.000000 0.000000 10.000000 
L_mid_hand02 0.000000 0.000000 0.000000 0.000000 0.000000 0.000000 10.000000 
L_mid_hand03 0.000000 0.000000 0.000000 0.000000 0.000000 0.000000 10.000000 
null_rope02_connect 0.000000 0.000000 0.000000 0.000000 0.000000 0.000000 10.000000 
Rope2_Seg01 0.000000 0.000000 0.000000 0.000000 0.000000 0.000000 10.000000 
Rope2_Seg02 0.000000 0.000000 0.000000 0.000000 0.000000 0.000000 10.000000 
Rope2_Seg03 0.000000 0.000000 0.000000 0.000000 0.000000 0.000000 10.000000 
Rope2_Seg04 0.000000 0.000000 0.000000 0.000000 0.000000 0.000000 10.000000 
Rope2_Seg05 0.000000 0.000000 0.000000 0.000000 0.000000 0.000000 10.000000 
Rope2_Seg06 0.000000 0.000000 0.000000 0.000000 0.000000 0.000000 10.000000 
Rope2_Seg07 0.000000 0.000000 0.000000 0.000000 0.000000 0.000000 10.000000 
Rope2_Seg09 0.000000 0.000000 0.000000 0.000000 0.000000 0.000000 10.000000 
R_mid_hand01 0.000000 0.000000 0.000000 0.000000 0.000000 0.000000 10.000000 
R_mid_hand02 0.000000 0.000000 0.000000 0.000000 0.000000 0.000000 10.000000 
R_mid_hand03 0.000000 0.000000 0.000000 0.000000 0.000000 0.000000 10.000000 
spine02 0.000000 0.000000 0.000000 0.000000 0.000000 0.000000 10.000000 
spine03 0.000000 0.000000 0.000000 0.000000 0.000000 0.000000 10.000000 
pelvis 0.000000 0.000000 0.000000 0.000000 0.000000 0.000000 10.000000 
null_rope03_connect 0.000000 0.000000 0.000000 0.000000 0.000000 0.000000 10.000000 
null_rope04_connect 0.000000 0.000000 0.000000 0.000000 0.000000 0.000000 10.000000 
Rope3_Seg01 0.000000 0.000000 0.000000 0.000000 0.000000 0.000000 10.000000 
Rope3_Seg02 0.000000 0.000000 0.000000 0.000000 0.000000 0.000000 10.000000 
Rope3_Seg03 0.000000 0.000000 0.000000 0.000000 0.000000 0.000000 10.000000 
Rope3_Seg04 0.000000 0.000000 0.000000 0.000000 0.000000 0.000000 10.000000 
Rope3_Seg05 0.000000 0.000000 0.000000 0.000000 0.000000 0.000000 10.000000 
Rope3_Seg06 0.000000 0.000000 0.000000 0.000000 0.000000 0.000000 10.000000 
Rope3_Seg07 0.000000 0.000000 0.000000 0.000000 0.000000 0.000000 10.000000 
Rope3_Seg08 0.000000 0.000000 0.000000 0.000000 0.000000 0.000000 10.000000 
Rope3_Seg09 0.000000 0.000000 0.000000 0.000000 0.000000 0.000000 10.000000 
R_rear_hand01 0.000000 0.000000 0.000000 0.000000 0.000000 0.000000 10.000000 
R_rear_hand02 0.000000 0.000000 0.000000 0.000000 0.000000 0.000000 10.000000 
R_rear_hand03 0.000000 0.000000 0.000000 0.000000 0.000000 0.000000 10.000000 
Rope4_Seg01 0.000000 0.000000 0.000000 0.000000 0.000000 0.000000 10.000000 
Rope4_Seg02 0.000000 0.000000 0.000000 0.000000 0.000000 0.000000 10.000000 
Rope4_Seg03 0.000000 0.000000 0.000000 0.000000 0.000000 0.000000 10.000000 
Rope4_Seg04 0.000000 0.000000 0.000000 0.000000 0.000000 0.000000 10.000000 
Rope4_Seg05 0.000000 0.000000 0.000000 0.000000 0.000000 0.000000 10.000000 
Rope4_Seg06 0.000000 0.000000 0.000000 0.000000 0.000000 0.000000 10.000000 
Rope4_Seg07 0.000000 0.000000 0.000000 0.000000 0.000000 0.000000 10.000000 
Rope4_Seg08 0.000000 0.000000 0.000000 0.000000 0.000000 0.000000 10.000000 
Rope4_Seg09 0.000000 0.000000 0.000000 0.000000 0.000000 0.000000 10.000000 
L_rear_hand01 0.000000 0.000000 0.000000 0.000000 0.000000 0.000000 10.000000 
L_rear_hand02 0.000000 0.000000 0.000000 0.000000 0.000000 0.000000 10.000000 
L_rear_hand03 0.000000 0.000000 0.000000 0.000000 0.000000 0.000000 10.000000 
#Beginning of Data. Separated by tabs
#Fr	Tx	Ty	Tz	Rx	Ry	Rz	SF
[MASTER]
1 0.000010 0.000293 0.000736 0.001660 0.001660 0.001660 0.000793
2 -0.000001 76.837158 193.045288 0.001660 0.001660 0.001660 207.774948
[root]
1 -16.502296 -62.822105 1669.531860 -91.629692 -27.676079 -90.148117 1670.794922
2 -17.109329 -60.734104 1669.733276 -88.478111 -26.118563 -90.194824 1670.925049
[chest]
1 -84.512650 -34.090519 0.000000 -4.883923 1.981828 -178.071060 91.129311
2 -84.512650 -34.090519 0.000000 -3.628335 1.371660 -179.916458 91.129311
[L_mid_tent01]
1 27.299500 22.177427 -249.917984 3.862623 36.229198 81.347595 252.380859
2 27.299492 22.177486 -249.918015 2.520739 35.784019 78.627945 252.380890
[R_mid_tent01]
1 23.228794 24.509907 226.238495 160.432083 -47.061260 87.899742 228.744751
2 23.228794 24.509907 226.238495 175.619690 -51.054203 76.021011 228.744751
[spine01]
1 -0.361383 -0.195265 0.000000 0.785009 0.347345 17.325937 0.410763
2 -0.361383 -0.195265 0.000000 0.768444 0.337792 17.457226 0.410763
[Bip01_Neck]
1 165.484543 71.581718 0.000119 175.896118 1.177290 24.871181 180.302734
2 165.484543 71.581718 0.000119 175.896118 1.177290 24.871183 180.302734
[L_humerus]
1 -13.983130 -135.272980 -120.471481 -175.938812 75.354187 -85.840691 181.680161
2 -13.983130 -135.272980 -120.471481 -175.578918 76.192421 -85.481522 181.680161
[R_humerus]
1 -13.983309 -135.273102 125.287651 -151.401672 -64.595802 -126.359909 184.909012
2 -13.983309 -135.273102 125.287651 -143.624207 -64.303490 -132.661804 184.909012
[weapon_bone]
1 235.964890 -300.705902 0.000000 0.000000 -89.951546 -128.212341 382.234833
2 235.964890 -300.705902 0.000000 0.000000 -89.951546 -128.212341 382.234833
[Bip01_Head]
1 254.794388 132.662811 -6.834736 2.248029 5.843377 -62.458344 287.343567
2 254.101608 135.165405 -7.020216 2.392720 5.844079 -62.452751 287.900330
[eye_left_bone]
1 -24.626970 125.451866 -64.772606 0.000000 -90.000000 -99.840431 143.318359
2 -24.626970 125.451866 -64.772606 0.000000 -90.000000 -99.840431 143.318359
[eye_right_bone]
1 -24.626970 125.451866 64.327362 0.000000 -89.960434 80.159386 143.117676
2 -24.626970 125.451866 64.327362 0.000000 -89.960434 80.159386 143.117676
[L_forearm]
1 322.776093 0.000000 -0.000119 0.000161 -0.002342 -97.889999 322.776093
2 322.776093 0.000000 -0.000119 0.000170 -0.002341 -98.298660 322.776093
[L_front_hand]
1 241.149185 -0.042021 -3.300071 -178.667953 -1.835447 -27.422350 241.171753
2 241.149185 -0.042021 -3.300071 -178.667953 -1.835447 -27.422350 241.171753
[L_weapon_bone]
1 156.183838 0.000000 0.000000 0.000014 0.000007 0.000001 156.183838
2 156.183838 0.000000 0.000000 0.000014 0.000007 0.000001 156.183838
[L_front_hand01_01]
1 86.095154 20.947098 -0.655860 -0.366594 -0.477154 75.385582 88.609184
2 86.095154 20.947098 -0.655860 -0.366594 -0.477154 75.385574 88.609184
[L_front_hand02_01]
1 86.935165 -11.437475 24.513514 154.403519 -59.888931 -61.371990 91.046425
2 86.935165 -11.437475 24.513514 154.403519 -59.888931 -61.371990 91.046425
[L_front_hand03_01]
1 86.637497 -14.123976 -20.424902 -153.913879 58.118130 -62.702892 90.126129
2 86.637497 -14.123976 -20.424902 -153.913849 58.118122 -62.702866 90.126129
[L_front_hand01_02]
1 71.020905 -0.000179 0.000030 0.000334 -0.002323 -106.379684 71.020905
2 71.020905 -0.000179 0.000030 0.000334 -0.002323 -106.379684 71.020905
[L_front_hand02_02]
1 71.020927 -0.000119 0.000060 0.000334 -0.002323 -106.379684 71.020927
2 71.020927 -0.000119 0.000060 0.000334 -0.002323 -106.379684 71.020927
[L_front_hand03_02]
1 71.020905 -0.000060 0.000060 0.000334 -0.002323 -106.379684 71.020905
2 71.020905 -0.000060 0.000060 0.000334 -0.002323 -106.379684 71.020905
[R_forearm]
1 322.776428 -0.000060 0.000030 0.213295 0.003866 -91.459335 322.776428
2 322.776428 -0.000060 0.000030 0.213248 0.005926 -92.566147 322.776428
[R_front_hand]
1 238.847015 -0.006795 2.210259 -1.531696 0.790215 -51.443047 238.857239
2 238.847015 -0.006795 2.210259 -1.997102 0.660181 -49.162880 238.857239
[R_weapon_bone]
1 155.664093 0.002503 -0.000030 0.003487 0.001180 -90.988930 155.664078
2 155.664093 0.002503 -0.000030 0.003487 0.001180 -90.988930 155.664078
[R_front_hand01_01]
1 87.624611 14.231146 22.918642 -154.633286 -59.950581 61.745811 91.683487
2 87.624611 14.231146 22.918642 -122.121323 -31.679863 18.702246 91.683487
[R_front_hand02_01]
1 89.356956 14.367283 -19.491137 154.602463 58.302822 63.744175 92.579636
2 89.356956 14.367283 -19.491137 123.409882 30.457808 21.397026 92.579636
[R_front_hand03_01]
1 87.286232 -22.307278 -0.143439 0.162154 -0.423168 -75.767784 90.091743
2 87.286232 -22.307278 -0.143439 -0.147798 -0.427427 -35.767342 90.091743
[R_front_hand01_02]
1 71.020905 0.000060 0.000119 0.002323 -0.000334 106.381386 71.020905
2 71.020905 0.000060 0.000119 0.001777 0.001534 8.377220 71.020905
[R_front_hand02_02]
1 71.020844 -0.000030 -0.000119 0.002323 -0.000334 106.381386 71.020836
2 71.020844 -0.000030 -0.000119 0.001777 0.001534 8.377220 71.020836
[R_front_hand03_02]
1 71.020905 0.000000 0.000030 0.002323 -0.000334 106.381386 71.020905
2 71.020905 0.000000 0.000030 0.001777 0.001534 8.377220 71.020905
[null_rope01_connect]
1 328.732483 0.000000 -0.000238 -137.564545 -51.925488 175.258713 328.732483
2 328.732483 0.000000 -0.000238 -137.401688 -55.472122 175.529327 328.732483
[Rope1_Seg01]
1 0.000000 0.000000 0.000000 108.435822 47.204891 131.322922 0.000000
2 0.000000 0.000000 0.000000 114.197899 51.747066 138.475601 0.000000
[Rope1_Seg02]
1 139.999863 -0.000179 0.000000 -0.200490 -7.528989 4.427136 139.999863
2 139.999863 -0.000179 0.000000 -0.081937 -8.295506 5.598261 139.999863
[Rope1_Seg03]
1 139.999924 0.000060 -0.000060 -1.315607 -11.638752 5.935154 139.999924
2 139.999924 0.000060 -0.000060 -0.887395 -11.421060 6.147305 139.999924
[Rope1_Seg04]
1 139.999924 -0.000060 -0.000119 -5.479338 -18.854380 9.417069 139.999924
2 139.999924 -0.000060 -0.000119 -3.174958 -15.642783 11.115570 139.999924
[Rope1_Seg05]
1 139.999832 0.000119 -0.000060 0.576660 -10.737052 15.122939 139.999832
2 139.999832 0.000119 -0.000060 1.191265 -10.209044 16.278059 139.999832
[Rope1_Seg06]
1 139.999954 0.000119 -0.000060 1.961475 -3.646034 6.148209 139.999954
2 139.999954 0.000119 -0.000060 1.573966 -4.184788 6.758624 139.999954
[Rope1_Seg07]
1 139.999985 0.000060 0.000000 0.792845 -2.192169 3.132998 139.999985
2 139.999985 0.000060 0.000000 1.056903 -2.308250 3.631802 139.999985
[Rope1_Seg09]
1 121.602913 0.000119 -0.000089 -89.793175 -1.359789 0.847147 121.602913
2 121.602913 0.000119 -0.000089 -89.793175 -1.359789 0.847147 121.602913
[L_mid_hand01]
1 103.859421 1.038730 8.195221 114.520287 -53.310486 -20.623234 104.187431
2 103.859421 1.038730 8.195221 114.520287 -53.310486 -20.623234 104.187431
[L_mid_hand02]
1 105.572853 -4.139662 -10.864139 -155.067673 38.166626 -52.448826 106.211075
2 105.572853 -4.139662 -10.864139 -155.067673 38.166626 -52.448818 106.211075
[L_mid_hand03]
1 104.641464 17.579376 -3.913581 -10.970132 15.317463 57.626957 106.179977
2 104.641464 17.579376 -3.913581 -10.970130 15.317461 57.626949 106.179977
[null_rope02_connect]
1 328.732849 0.000179 -0.000119 -123.736801 41.490044 18.218407 328.732849
2 328.732849 0.000179 -0.000119 -134.778717 37.513538 2.715684 328.732849
[Rope2_Seg01]
1 -0.000038 0.000153 0.000000 -51.050003 46.969299 49.759445 0.000157
2 -0.000036 0.000132 0.000004 -61.334785 42.834408 32.497055 0.000137
[Rope2_Seg02]
1 139.999741 -0.000060 -0.000119 -0.021009 -5.738295 2.033129 139.999756
2 139.999741 -0.000060 -0.000119 -2.176658 -13.253271 10.246879 139.999756
[Rope2_Seg03]
1 140.000107 0.000030 0.000000 -0.196059 -4.842888 3.386444 140.000107
2 140.000107 0.000030 0.000000 -0.766637 -5.698368 9.722447 140.000107
[Rope2_Seg04]
1 139.999802 0.000000 -0.000060 -0.866696 -14.768315 5.502146 139.999802
2 139.999802 0.000000 -0.000060 -1.097712 -16.056248 5.662968 139.999802
[Rope2_Seg05]
1 139.999985 -0.000060 0.000119 -8.337721 -30.392607 -0.817817 139.999985
2 139.999985 -0.000060 0.000119 -5.330940 -21.991030 1.013016 139.999985
[Rope2_Seg06]
1 139.999893 -0.000030 -0.000119 -4.163791 -7.092937 -1.168230 139.999893
2 139.999893 -0.000030 -0.000119 -3.877902 -9.285501 0.043658 139.999893
[Rope2_Seg07]
1 139.999893 0.000060 -0.000060 -2.417316 -3.303464 -0.710547 139.999893
2 139.999893 0.000060 -0.000060 -2.806328 -4.996708 -0.207633 139.999893
[Rope2_Seg09]
1 121.338966 0.000089 -0.000060 56.676750 -0.921364 -1.309811 121.338966
2 121.338966 0.000089 -0.000060 61.981045 -0.783409 -1.391714 121.338966
[R_mid_hand01]
1 104.680779 11.144459 -10.335981 -39.248714 29.171024 33.551796 105.778534
2 104.680779 11.144459 -10.335981 -47.384251 2.963615 5.452690 105.778534
[R_mid_hand02]
1 104.070427 2.443552 8.231699 71.586548 -38.253475 12.182606 104.424065
2 104.070427 2.443552 8.231699 75.626297 -2.250124 1.111124 104.424065
[R_mid_hand03]
1 106.028137 -11.221827 -5.996406 -168.987137 11.418994 -42.774509 106.788818
2 106.028137 -11.221827 -5.996406 -164.381927 2.496018 -6.140643 106.788818
[spine02]
1 129.756927 0.001550 0.000119 -0.245322 -4.052062 -4.355547 129.756927
2 129.756927 0.001550 0.000119 -0.249362 -4.468241 -4.355088 129.756927
[spine03]
1 78.556282 0.095978 -5.460491 0.398688 4.882354 -3.115210 78.745895
2 78.556381 0.095851 -5.459594 0.423261 4.896191 -2.762549 78.745926
[pelvis]
1 169.435242 0.051022 0.000000 -0.035813 -0.502304 1.777407 169.435257
2 169.435242 0.051022 0.000000 -0.038226 -0.504172 2.094024 169.435257
[null_rope03_connect]
1 -1.257226 -2.466202 137.391083 -97.457428 -88.684631 -156.469681 137.418976
2 -1.257226 -2.466202 137.391083 10.033911 -87.448563 93.661812 137.418976
[null_rope04_connect]
1 -1.259640 -2.480268 -137.844437 -97.457428 -88.684631 -156.469681 137.872513
2 -1.259640 -2.480268 -137.844437 10.033911 -87.448563 93.661812 137.872513
[Rope3_Seg01]
1 -0.000029 -0.000038 0.000000 -142.820984 -36.664928 -61.599236 0.000048
2 -0.000028 -0.000054 0.000000 -141.000473 -40.807491 -67.170578 0.000061
[Rope3_Seg02]
1 139.999924 -0.000119 0.000060 -29.456387 7.982101 -42.334618 139.999924
2 139.999924 -0.000119 0.000060 -13.684741 -4.291182 -37.944607 139.999924
[Rope3_Seg03]
1 139.999924 -0.000119 0.000119 -61.855156 31.985031 -43.064888 139.999924
2 139.999924 -0.000119 0.000119 -94.225746 7.115357 -56.174381 139.999924
[Rope3_Seg04]
1 139.999924 0.000119 0.000000 -20.181139 32.088680 -10.990715 139.999924
2 139.999924 0.000119 0.000000 -18.802755 37.548786 5.825675 139.999924
[Rope3_Seg05]
1 139.999924 -0.000238 0.000060 -5.509532 22.888655 -1.887344 139.999924
2 139.999924 -0.000238 0.000060 -1.047070 17.122747 9.413313 139.999924
[Rope3_Seg06]
1 139.999893 -0.000119 -0.000060 -0.217238 7.337264 0.527934 139.999893
2 139.999893 -0.000119 -0.000060 0.347260 5.322538 3.172036 139.999893
[Rope3_Seg07]
1 139.999771 0.000060 -0.000119 0.345039 4.205499 0.321178 139.999771
2 139.999771 0.000060 -0.000119 0.550573 3.089709 1.822446 139.999771
[Rope3_Seg08]
1 139.999985 -0.000060 0.000000 0.509660 2.375044 0.165580 139.999985
2 139.999985 -0.000060 0.000000 0.586192 1.762217 1.019746 139.999985
[Rope3_Seg09]
1 90.185997 -0.000179 -0.000060 89.795311 -1.358474 -0.848592 90.185997
2 90.185997 -0.000179 -0.000060 89.523315 -1.360484 -0.845365 90.185997
[R_rear_hand01]
1 103.366196 -6.073594 -10.757982 -173.185593 23.762142 -62.885860 104.101845
2 103.366196 -6.073594 -10.757982 -161.952179 17.100084 -31.467245 104.101845
[R_rear_hand02]
1 100.509819 12.039542 -7.992327 -19.787790 34.018837 60.270813 101.543350
2 100.509819 12.039542 -7.992327 -33.868809 20.068441 30.096478 101.543350
[R_rear_hand03]
1 101.539970 5.215704 5.435467 77.783302 -62.070759 14.692156 101.819031
2 101.539970 5.215704 5.435467 83.265404 -32.311989 7.474987 101.819031
[Rope4_Seg01]
1 -0.000019 -0.000076 -0.000153 47.616650 -16.827208 -103.496712 0.000172
2 -0.000019 -0.000091 -0.000153 49.023212 -13.631691 -112.079750 0.000178
[Rope4_Seg02]
1 139.999985 0.000060 0.000119 21.114267 -65.378258 18.456600 139.999985
2 139.999985 0.000060 0.000119 45.229240 -58.954819 -31.788824 139.999985
[Rope4_Seg03]
1 139.999924 0.000000 -0.000238 42.149063 -27.426344 29.625546 139.999924
2 139.999924 0.000000 -0.000238 116.501251 -38.276268 9.617620 139.999924
[Rope4_Seg04]
1 139.999985 0.000000 0.000119 18.083605 -2.915824 23.532743 139.999985
2 139.999985 0.000000 0.000119 20.377125 12.905897 28.665560 139.999985
[Rope4_Seg05]
1 139.999802 -0.000060 -0.000119 13.125763 5.159067 33.393105 139.999802
2 139.999802 -0.000060 -0.000119 7.117716 17.309557 21.391247 139.999802
[Rope4_Seg06]
1 139.999924 0.000000 0.000060 1.799542 4.994856 12.621284 139.999924
2 139.999924 0.000000 0.000060 0.616205 6.291960 6.031655 139.999924
[Rope4_Seg07]
1 139.999802 0.000000 0.000000 0.250835 2.628325 6.104989 139.999802
2 139.999802 0.000000 0.000000 0.182228 3.589006 3.392366 139.999802
[Rope4_Seg08]
1 139.999924 0.000000 0.000119 -1.580612 1.422577 3.281824 139.999924
2 139.999924 0.000000 0.000119 -1.503784 2.010227 1.889802 139.999924
[Rope4_Seg09]
1 90.185791 0.000060 0.000060 -135.617828 2.228885 0.850567 90.185791
2 90.185791 0.000060 0.000060 -135.617828 2.228885 0.850567 90.185791
[L_rear_hand01]
1 101.696655 -8.392275 -7.654577 -19.915014 -33.950905 119.950104 102.329041
2 101.696655 -8.392275 -7.654577 -19.915020 -33.950905 119.950104 102.329041
[L_rear_hand02]
1 102.726799 -1.568258 5.773216 77.862221 61.878510 165.399200 102.900848
2 102.726799 -1.568258 5.773216 77.862221 61.878510 165.399200 102.900848
[L_rear_hand03]
1 104.552910 9.721220 -10.420293 -173.099197 -23.740316 -117.327896 105.519653
2 104.552910 9.721220 -10.420293 -173.099182 -23.740307 -117.327896 105.519653
